<svg width="28" height="28" viewBox="0 0 28 28" fill="none" xmlns="http://www.w3.org/2000/svg">
<path d="M1 13.9976C1.00057 10.927 2.08801 7.95577 4.06967 5.61024C6.05133 3.26471 8.79927 1.69633 11.8266 1.18299C14.854 0.669643 17.9654 1.24447 20.6095 2.80562C23.2536 4.36677 25.2597 6.81347 26.2725 9.71222C27.2853 12.611 27.2393 15.7747 26.1427 18.6427C25.0461 21.5108 22.9697 23.8982 20.2813 25.3818C17.5929 26.8655 14.4662 27.3496 11.455 26.7485C8.44384 26.1474 5.74264 24.4998 3.83 22.0976" stroke="#FBF3EA" stroke-width="2" stroke-miterlimit="10"/>
<path d="M9.56961 22.1577L3.59961 21.9077L3.83961 27.8877" stroke="#FBF3EA" stroke-width="2" stroke-miterlimit="10"/>
<path d="M16.5801 13.9976C16.5801 15.3783 15.4608 16.4976 14.0801 16.4976C12.6994 16.4976 11.5801 15.3783 11.5801 13.9976C11.5801 12.6168 12.6994 11.4976 14.0801 11.4976C15.4608 11.4976 16.5801 12.6168 16.5801 13.9976Z" fill="#FBF3EA" stroke="#FBF3EA"/>
</svg>
