<svg xmlns="http://www.w3.org/2000/svg" viewBox="0 0 19.07 25.91"><defs><style>.cls-1,.cls-2{fill:none;stroke:#000;stroke-miterlimit:10;}.cls-1{stroke-width:1.8px;}.cls-2{stroke-width:2px;}</style></defs><g id="Calque_2" data-name="Calque 2"><g id="Calque_1-2" data-name="Calque 1"><path class="cls-1" d="M18.16,16.39l-10-8.75a0,0,0,0,0,0,0L8.47,21s0,0,0,0l3-2a0,0,0,0,1,0,0l2.71,5.77,3.17-1.48-2.72-5.78s0,0,0,0l3.47-1A0,0,0,0,0,18.16,16.39Z"/><line class="cls-2" x1="5.15" y1="4.52" x2="2.46" y2="1.83"/><line class="cls-2" x1="4.25" y1="11.79" x2="1.55" y2="14.48"/><line class="cls-2" x1="8.79" y1="3.81" x2="8.79"/><line class="cls-2" x1="12.43" y1="4.52" x2="15.12" y2="1.83"/><line class="cls-2" x1="14.05" y1="8.16" x2="17.85" y2="8.16"/><line class="cls-2" y1="8.16" x2="3.81" y2="8.16"/></g></g></svg>