<svg width="22" height="29" viewBox="0 0 22 29" fill="none" xmlns="http://www.w3.org/2000/svg">
<path d="M11.7459 12.9099L10.923 12.2139V13.2917V23.3813V24.4271L11.737 23.7704L12.5884 23.0835L13.1995 22.6019L13.1995 22.6019L13.2065 22.5962C13.2879 22.5297 13.3833 22.4829 13.4852 22.4595C13.5871 22.436 13.693 22.4364 13.7947 22.4606C13.8964 22.4848 13.9915 22.5323 14.0724 22.5994C14.1532 22.6665 14.2179 22.7515 14.2611 22.848C14.2612 22.8481 14.2612 22.8483 14.2613 22.8484L14.5737 23.5487L14.5736 23.5487L14.5764 23.5547L16.2117 27.0951L16.4222 27.5509L16.8772 27.3384L18.5846 26.5409L19.0351 26.3305L18.8272 25.8788L17.1919 22.3263L17.1914 22.3253L16.8668 21.6244L16.8669 21.6244L16.8623 21.615C16.6759 21.2336 16.9146 20.7292 17.3644 20.6333L18.1289 20.4893L18.129 20.4893L18.137 20.4877L19.1952 20.2702L20.2029 20.063L19.4174 19.3987L11.7459 12.9099ZM10.5332 11.0004H10.5335C10.6299 11.0004 10.7236 11.0348 10.7977 11.0981L11.15 11.3991L11.1637 11.3852L21.3209 19.969L21.3237 19.9713C21.5385 20.1502 21.5434 20.3987 21.4106 20.5638C21.3417 20.6374 21.2547 20.6908 21.1587 20.7186L18.2808 21.2586L17.6522 21.3765L17.9184 21.9581L19.9265 26.3444L19.9331 26.359L19.9408 26.3731C20.0304 26.5397 19.9626 26.7951 19.7348 26.9045C19.7343 26.9047 19.7338 26.905 19.7333 26.9052L16.4183 28.4501L16.374 28.4708L16.3389 28.4965C16.3338 28.4973 16.3246 28.4983 16.3091 28.499C16.2893 28.4999 16.2677 28.5 16.2327 28.5C16.0708 28.5 15.9265 28.4123 15.8556 28.2678L13.8619 23.8987L13.593 23.3094L13.091 23.7188L10.8004 25.5868C10.7304 25.6396 10.6462 25.6725 10.5332 25.6725C10.3067 25.6725 10.1194 25.4878 10.1194 25.2542V11.4187C10.1194 11.307 10.1636 11.2003 10.2415 11.1221C10.3193 11.0439 10.4243 11.0004 10.5332 11.0004ZM16.1315 11.5833V10.1667H21.1436V11.5833H16.1315ZM15.9201 6.74657L14.9301 5.75167L17.6275 3.04093L18.6176 4.03583L15.9201 6.74657ZM10.1194 0.5H11.5242V5.54167H10.1194V0.5ZM4.0161 18.7091L3.02606 17.7142L5.72354 15.0034L6.71358 15.9983L4.0161 18.7091ZM5.72354 6.74657L3.02606 4.03583L4.0161 3.04093L6.71358 5.75167L5.72354 6.74657ZM5.51212 11.5833H0.5V10.1667H5.51212V11.5833Z" fill="#FBF3EA" stroke="#FBF3EA"/>
</svg>
